b' <!DOCTYPE html> <html lang="en"> <head> <meta charset="utf-8"> <meta http-equiv="X-UA-Compatible" content="IE=edge"> <meta name="viewport" content="width=device-width, initial-scale=1">  <meta name="description" content="www.paste.org - allows users to paste snippets of text, usually samples of source code, for public viewing."> <meta name="author" content="An Australian"> <link rel="icon" href="/favicon.ico"> <title>Paste code - paste.org</title>  <link href="/assets/themes/bleh/css/github-highlight.css" rel="stylesheet"> <script src="/assets/themes/bleh/js/highlight.pack.js"></script> <script>hljs.initHighlightingOnLoad();</script> </head> <body> <p><pre><code class="nohighlight">General\nID : 3089 (0xC11)\nComplete name : C:\\Documents and Settings\\LG\\My Documents\\TV\\Music Wave 20121202\\Music Wave 20121202.tp\nFormat : MPEG-TS\nFile size : 16.0 GiB\nDuration : 1h 58mn\nStart time : UTC 2012-12-01 15:36:18\nEnd time : UTC 2012-12-01 17:34:44\nOverall bit rate mode : Variable\nOverall bit rate : 19.4 Mbps\n\nVideo\nID : 17 (0x11)\nMenu ID : 1 (0x1)\nFormat : MPEG Video\nFormat version : Version 2\nFormat profile : <a href="/cdn-cgi/l/email-protection" class="__cf_email__" data-cfemail="9ed3fff7f0ded6f7f9f6">[email&#160;protected]</a>\nFormat settings, BVOP : Yes\nFormat settings, Matrix : Custom\nFormat settings, GOP : M=3, N=15\nCodec ID : 2\nDuration : 1h 58mn\nBit rate mode : Variable\nBit rate : 18.0 Mbps\nMaximum bit rate : 17.4 Mbps\nWidth : 1 920 pixels\nHeight : 1 080 pixels\nDisplay aspect ratio : 16:9\nFrame rate : 29.970 fps\nColor space : YUV\nChroma subsampling : 4:2:0\nBit depth : 8 bits\nScan type : Interlaced\nScan order : Top Field First\nCompression mode : Lossy\nBits/(Pixel*Frame) : 0.289\nStream size : 14.9 GiB (93%)\n\nAudio\nID : 20 (0x14)\nMenu ID : 1 (0x1)\nFormat : AC-3\nFormat/Info : Audio Coding 3\nMode extension : CM (complete main)\nCodec ID : 129\nDuration : 1h 58mn\nBit rate mode : Constant\nBit rate : 448 Kbps\nChannel(s) : 2 channels\nChannel positions : Front: L R\nSampling rate : 48.0 KHz\nBit depth : 16 bits\nCompression mode : Lossy\nDelay relative to video : -217ms\nStream size : 380 MiB (2%)\nLanguage : Korean</code></pre></p> <p align="right"><span style="font-size: 60%">Add a code snippet to your website: <a href="https://www.paste.org" target="_blank">www.paste.org</a></span></p> <script data-cfasync="false" src="/cdn-cgi/scripts/5c5dd728/cloudflare-static/email-decode.min.js"></script></body> </html>'